<?xml version="1.0" encoding="utf-8"?>
<!-- Generator: Adobe Illustrator 16.0.0, SVG Export Plug-In . SVG Version: 6.00 Build 0)  -->
<!DOCTYPE svg PUBLIC "-//W3C//DTD SVG 1.0//EN" "http://www.w3.org/TR/2001/REC-SVG-20010904/DTD/svg10.dtd">
<svg version="1.0" id="Layer_1" xmlns="http://www.w3.org/2000/svg" xmlns:xlink="http://www.w3.org/1999/xlink" x="0px" y="0px"
	 width="800px" height="800px" viewBox="0 0 800 800" enable-background="new 0 0 800 800" xml:space="preserve">
<g>
	<rect x="290.955" y="227.211" fill="#21459B" width="42.062" height="163.391"/>
	<path fill="#21459B" d="M155.098,227.202v36.335h121.015v-36.335H155.098z M155.098,390.602h42.064v-66.778h66.644v-36.334H155.098
		V390.602z"/>
	<path fill="#21459B" d="M628.154,306.944c5.816-5.152,16.199-14.891,16.199-31.748c0-29.827-19.412-47.994-52.441-47.994
		c-133.93,0-133.93,0-133.93,0c-31.084,103.762-31.084,103.762-31.084,103.762l0,0c-31.04-103.762-31.04-103.762-31.04-103.762
		c-47.283,0-47.283,0-47.283,0c0,36.335,0,36.335,0,36.335c14.886,0,14.886,0,14.886,0
		c42.079,127.064,42.079,127.064,42.079,127.064c42.689,0,42.689,0,42.689,0c42.08-127.064,42.08-127.064,42.08-127.064
		c97.076,0,97.076,0,97.076,0c12.963,0,14.908,8.428,14.908,13.581c0,5.219-1.945,13.646-14.908,13.646c0,0-58.254,0-73.139,0
		c0,36.27,0,36.27,0,36.27c11.672,0,74.43,0,74.43,0c12.961,0,14.908,8.45,14.908,13.646c0,5.176-1.947,13.602-14.908,13.602
		c0,0-62.758,0-74.43,0c0,36.319,0,36.319,0,36.319c80.879,0,80.879,0,80.879,0c31.105,0,51.15-19.449,51.15-48.633
		C646.277,320.593,635.26,311.509,628.154,306.944z"/>
	<path fill="#21459B" d="M399.727,426.923c-131.395,0-255.654,22.031-366.994,60.931c0,2.633,0,2.633,0,2.633
		c113.276-27.241,237.521-42.178,366.994-42.178c129.406,0,253.654,14.937,366.928,42.178c0-2.633,0-2.633,0-2.633
		C655.326,448.954,531.078,426.923,399.727,426.923z"/>
	<polygon fill="#21459B" points="648.877,390.602 648.877,377.009 644.354,377.009 644.354,375.719 654.67,375.719 654.67,377.009 
		650.166,377.009 650.166,390.602 	"/>
	<path fill="#21459B" d="M656.658,390.602c0-14.883,0-14.883,0-14.883c2.58,0,2.58,0,2.58,0c3.236,10.369,3.236,10.369,3.236,10.369
		c0,1.291,0.656,1.935,0.656,2.581c0-0.646,0-1.29,0.633-2.581c3.234-10.369,3.234-10.369,3.234-10.369c2.58,0,2.58,0,2.58,0
		c0,14.883,0,14.883,0,14.883c-1.945,0-1.945,0-1.945,0c0-12.949,0-12.949,0-12.949c-3.869,12.949-3.869,12.949-3.869,12.949
		c-1.924,0-1.924,0-1.924,0c-3.891-12.949-3.891-12.949-3.891-12.949c0,12.949,0,12.949,0,12.949
		C656.658,390.602,656.658,390.602,656.658,390.602z"/>
	<polygon fill="#21459B" points="155.098,504.078 167.363,504.078 167.363,506.656 157.682,506.656 157.682,515.736 
		166.716,515.736 166.716,517.725 157.682,517.725 157.682,530.029 155.098,530.029 	"/>
	<path fill="#21459B" d="M179.681,498.273h2.582l-4.519,5.162h-1.292L179.681,498.273z M172.526,504.078h12.318v2.578h-9.682v9.08
		h9.035v1.988h-9.035v9.728h10.327v2.577h-12.963V504.078z"/>
	<path fill="#21459B" d="M193.881,527.452c1.989,0,1.989,0,1.989,0c7.101,0,11.618-2.635,11.618-10.425
		c0-7.736-4.517-10.371-10.326-10.371c-3.281,0-3.281,0-3.281,0V527.452z M191.299,504.078c5.863,0,5.863,0,5.863,0
		c9.034,0,12.908,5.213,12.908,12.949c0,9.08-5.809,13.002-14.2,13.002c-4.571,0-4.571,0-4.571,0V504.078z"/>
	<path fill="#21459B" d="M223.677,498.273h2.583l-4.518,5.162h-1.292L223.677,498.273z M216.577,504.078h12.266v2.578h-9.681v9.08
		h9.034v1.988h-9.034v9.728h10.326v2.577h-12.911V504.078z"/>
	<path fill="#21459B" d="M237.932,515.736c2.581,0,2.581,0,2.581,0c3.229,0,6.456-1.289,6.456-4.51c0-4.57-3.227-4.57-6.456-4.57
		c-2.581,0-2.581,0-2.581,0V515.736z M235.35,504.078c6.455,0,6.455,0,6.455,0c4.519,0,7.745,1.937,7.745,7.148
		c0,3.221-2.582,5.155-5.808,5.801l0,0c1.934,0,2.582,1.344,3.227,2.635c4.519,10.367,4.519,10.367,4.519,10.367
		c-3.227,0-3.227,0-3.227,0c-3.229-9.081-3.229-9.081-3.229-9.081c-1.29-3.224-2.582-3.224-5.163-3.224c-1.936,0-1.936,0-1.936,0
		c0,12.305,0,12.305,0,12.305c-2.582,0-2.582,0-2.582,0V504.078z"/>
	<path fill="#21459B" d="M265.096,506.656l-5.159,14.292h10.973L265.096,506.656z M263.806,504.078h3.235l9.728,25.951h-2.645
		l-2.579-7.146h-12.897l-2.58,7.146h-2.645L263.806,504.078z"/>
	<polygon fill="#21459B" points="283.873,506.656 276.113,506.656 276.113,504.078 293.556,504.078 293.556,506.656 
		285.796,506.656 285.796,530.029 283.873,530.029 	"/>
	<rect x="297.469" y="504.078" fill="#21459B" width="2.582" height="25.951"/>
	<path fill="#21459B" d="M307.809,517.027c0,5.212,2.579,11.067,9.093,11.067c5.793,0,8.372-5.855,8.372-11.067
		c0-5.159-2.579-11.013-8.372-11.013C310.388,506.015,307.809,511.868,307.809,517.027z M316.902,504.078
		c7.083,0,10.952,5.858,10.952,12.949c0,7.79-3.869,13.002-10.952,13.002c-7.803,0-11.673-5.212-11.673-13.002
		C305.229,509.937,309.099,504.078,316.902,504.078z"/>
	<polygon fill="#21459B" points="333.034,504.078 336.313,504.078 349.21,526.807 349.21,504.078 351.79,504.078 351.79,530.029 
		348.576,530.029 335.658,507.999 335.658,530.029 333.034,530.029 	"/>
	<rect x="369.276" y="504.078" fill="#21459B" width="2.582" height="25.951"/>
	<polygon fill="#21459B" points="377.714,504.078 380.95,504.078 393.868,526.807 393.868,504.078 396.491,504.078 396.491,530.029 
		393.212,530.029 380.315,507.999 380.315,530.029 377.714,530.029 	"/>
	<polygon fill="#21459B" points="408.119,506.656 400.361,506.656 400.361,504.078 417.848,504.078 417.848,506.656 
		410.699,506.656 410.699,530.029 408.119,530.029 	"/>
	<polygon fill="#21459B" points="422.371,504.078 434.635,504.078 434.635,506.656 424.951,506.656 424.951,515.736 
		433.979,515.736 433.979,517.725 424.951,517.725 424.951,527.452 435.27,527.452 435.27,530.029 422.371,530.029 	"/>
	<path fill="#21459B" d="M443.729,515.736c2.58,0,2.58,0,2.58,0c3.213,0,6.449-1.289,6.449-4.51c0-4.57-2.58-4.57-6.449-4.57
		c-2.58,0-2.58,0-2.58,0V515.736z M441.15,504.078c6.449,0,6.449,0,6.449,0c4.523,0,7.736,1.937,7.736,7.148
		c0,3.221-2.578,5.155-5.814,5.801l0,0c1.945,0,2.602,1.344,3.236,2.635c4.568,10.367,4.568,10.367,4.568,10.367
		c-2.623,0-2.623,0-2.623,0c-3.893-9.081-3.893-9.081-3.893-9.081c-1.289-3.224-2.58-3.224-5.158-3.224c-1.924,0-1.924,0-1.924,0
		c0,12.305,0,12.305,0,12.305c-2.578,0-2.578,0-2.578,0V504.078z"/>
	<polygon fill="#21459B" points="461.85,504.078 465.086,504.078 478.047,526.807 478.047,504.078 480.627,504.078 480.627,530.029 
		477.391,530.029 464.43,507.999 464.43,530.029 461.85,530.029 	"/>
	<path fill="#21459B" d="M496.17,506.656l-5.225,14.292h11.039L496.17,506.656z M494.814,504.078h3.279l9.684,25.951h-2.58
		l-2.578-7.146h-12.965l-2.578,7.146h-2.58L494.814,504.078z"/>
	<polygon fill="#21459B" points="514.248,506.656 507.143,506.656 507.143,504.078 524.609,504.078 524.609,506.656 
		516.869,506.656 516.869,530.029 514.248,530.029 	"/>
	<rect x="528.498" y="504.078" fill="#21459B" width="2.582" height="25.951"/>
	<path fill="#21459B" d="M538.883,517.027c0,5.212,2.58,11.067,9.027,11.067c5.814,0,8.438-5.855,8.438-11.067
		c0-5.159-2.623-11.013-8.438-11.013C541.463,506.015,538.883,511.868,538.883,517.027z M547.91,504.078
		c7.105,0,11.016,5.858,11.016,12.949c0,7.79-3.91,13.002-11.016,13.002c-7.738,0-11.629-5.212-11.629-13.002
		C536.281,509.937,540.172,504.078,547.91,504.078z"/>
	<polygon fill="#21459B" points="564.107,504.078 567.32,504.078 580.283,526.807 580.283,504.078 582.863,504.078 582.863,530.029 
		579.65,530.029 566.688,507.999 566.688,530.029 564.107,530.029 	"/>
	<path fill="#21459B" d="M598.404,506.656l-5.201,14.292h11.016L598.404,506.656z M597.115,504.078h3.234l9.684,25.951h-2.578
		l-2.58-7.146h-12.963l-2.58,7.146h-2.578L597.115,504.078z"/>
	<polygon fill="#21459B" points="614.559,504.078 617.182,504.078 617.182,527.452 626.865,527.452 626.865,530.029 
		614.559,530.029 	"/>
	<polygon fill="#21459B" points="631.391,504.078 644.354,504.078 644.354,506.656 633.971,506.656 633.971,515.736 
		643.697,515.736 643.697,517.725 633.971,517.725 633.971,527.452 644.354,527.452 644.354,530.029 631.391,530.029 	"/>
	<path fill="#21459B" d="M274.124,569.574c1.989,0,1.989,0,1.989,0c7.104,0,12.263-2.579,12.263-10.371
		c0-7.79-4.503-10.368-10.317-10.368c-3.935,0-3.935,0-3.935,0V569.574z M271.544,546.899c6.514,0,6.514,0,6.514,0
		c9.028,0,12.896,5.159,12.896,12.304c0,9.081-6.448,12.949-14.842,12.949c-4.568,0-4.568,0-4.568,0V546.899z"/>
	<polygon fill="#21459B" points="296.835,546.899 309.099,546.899 309.099,548.835 299.415,548.835 299.415,557.914 
		309.099,557.914 309.099,559.849 299.415,559.849 299.415,569.574 309.732,569.574 309.732,572.152 296.835,572.152 	"/>
	<polygon fill="#21459B" points="336.313,572.152 333.034,572.152 323.984,546.899 326.564,546.899 334.958,569.574 
		343.417,546.899 345.341,546.899 	"/>
	<path fill="#21459B" d="M351.155,559.203c0,5.857,2.58,11.017,8.438,11.017c5.814,0,9.051-5.159,9.051-11.017
		c0-5.21-3.236-11.014-9.051-11.014C353.735,548.189,351.155,553.993,351.155,559.203z M359.593,546.256
		c7.761,0,11.629,6.448,11.629,12.947c-0.655,7.792-3.868,13.595-11.629,13.595c-7.148,0-11.017-5.803-11.017-13.595
		C348.576,552.704,351.79,546.256,359.593,546.256z"/>
	<polygon fill="#21459B" points="376.424,546.899 379.025,546.899 379.025,569.574 389.343,569.574 389.343,572.152 
		376.424,572.152 	"/>
	<polygon fill="#21459B" points="393.212,546.899 395.858,546.899 395.858,569.574 406.174,569.574 406.174,572.152 
		393.212,572.152 	"/>
	<polygon fill="#21459B" points="410.699,546.899 423.006,546.899 423.006,548.835 413.279,548.835 413.279,557.914 
		422.371,557.914 422.371,559.849 413.279,559.849 413.279,569.574 423.662,569.574 423.662,572.152 410.699,572.152 	"/>
	<polygon fill="#21459B" points="435.969,561.139 426.898,546.899 429.477,546.899 437.258,559.203 445.652,546.899 448.23,546.899 
		438.549,561.139 438.549,572.152 435.969,572.152 	"/>
	<path fill="#21459B" d="M454.703,557.914c3.279,0,3.279,0,3.279,0c2.578,0,5.813-0.644,5.813-5.21c0-3.225-3.234-3.869-5.18-3.869
		c-3.912,0-3.912,0-3.912,0V557.914z M454.703,569.574c2.623,0,2.623,0,2.623,0c3.234,0,7.104-0.646,7.104-4.514
		c0-4.566-3.869-5.212-7.104-5.212c-2.623,0-2.623,0-2.623,0V569.574z M452.123,546.899c6.492,0,6.492,0,6.492,0
		c3.869,0,7.76,1.29,7.76,5.805c0,3.276-1.289,5.21-4.525,5.855l0,0c3.236,0.644,5.16,2.579,5.16,6.501
		c0,5.159-4.525,7.092-9.684,7.092c-5.203,0-5.203,0-5.203,0V546.899z"/>
	<path fill="#21459B" d="M482.551,548.835l-5.791,14.237h10.949L482.551,548.835z M481.262,546.899h2.58l10.338,25.253h-2.58
		l-2.578-7.092h-12.92l-2.645,7.092h-2.578L481.262,546.899z"/>
	<polygon fill="#21459B" points="498.094,546.899 500.674,546.899 500.674,569.574 511.012,569.574 511.012,572.152 
		498.094,572.152 	"/>
	<polygon fill="#21459B" points="514.881,546.899 517.525,546.899 517.525,569.574 527.842,569.574 527.842,572.152 
		514.881,572.152 	"/>
	<rect x="33.432" y="227.857" fill="none" width="733.835" height="344.279"/>
</g>
</svg>
